<svg width="11" height="11" viewBox="0 0 11 11" fill="none" xmlns="http://www.w3.org/2000/svg">
<path fill-rule="evenodd" clip-rule="evenodd" d="M5.49967 0.458496C8.28411 0.458496 10.5413 2.71573 10.5413 5.50016C10.5413 8.2846 8.28411 10.5418 5.49967 10.5418C2.71524 10.5418 0.458008 8.2846 0.458008 5.50016C0.458008 2.71573 2.71524 0.458496 5.49967 0.458496ZM5.49967 1.37516C3.2215 1.37516 1.37467 3.22199 1.37467 5.50016C1.37467 7.77834 3.2215 9.62516 5.49967 9.62516C7.77785 9.62516 9.62467 7.77834 9.62467 5.50016C9.62467 3.22199 7.77785 1.37516 5.49967 1.37516ZM4.77286 5.42153L3.80058 4.44925C3.62159 4.27026 3.62159 3.98006 3.80058 3.80107C3.97957 3.62208 4.26977 3.62208 4.44876 3.80107L5.42104 4.77334L6.39331 3.80107C6.5723 3.62208 6.8625 3.62208 7.04149 3.80107C7.22048 3.98006 7.22048 4.27026 7.04149 4.44925L6.06922 5.42153L7.04149 6.3938C7.22048 6.57279 7.22048 6.86299 7.04149 7.04198C6.8625 7.22097 6.5723 7.22097 6.39331 7.04198L5.42104 6.06971L4.44876 7.04198C4.26977 7.22097 3.97957 7.22097 3.80058 7.04198C3.62159 6.86299 3.62159 6.57279 3.80058 6.3938L4.77286 5.42153Z" fill="#FF676E"/>
</svg>
