<svg width="14" height="14" viewBox="0 0 14 14" fill="none" xmlns="http://www.w3.org/2000/svg">
<path d="M11.0833 6.99953C10.7607 6.99953 10.5 7.26089 10.5 7.58282V12.2495C10.5 12.5709 10.2386 12.8328 9.9167 12.8328H1.75C1.42796 12.8328 1.1667 12.5709 1.1667 12.2495V4.08282C1.1667 3.76143 1.42796 3.49953 1.75 3.49953H6.4167C6.73927 3.49953 7 3.23816 7 2.91623C7 2.59419 6.73927 2.33282 6.4167 2.33282H1.75C0.785172 2.33282 0 3.118 0 4.08282V12.2495C0 13.2144 0.785172 13.9995 1.75 13.9995H9.9167C10.8815 13.9995 11.6667 13.2144 11.6667 12.2495V7.58282C11.6667 7.26025 11.4059 6.99953 11.0833 6.99953Z" fill="#92929D"/>
<path d="M5.46929 6.46811C5.42848 6.50891 5.40103 6.56082 5.38939 6.61679L4.97699 8.67953C4.95777 8.77513 4.9881 8.87372 5.05689 8.94315C5.11232 8.99858 5.18698 9.02827 5.26346 9.02827C5.28204 9.02827 5.30138 9.02657 5.3206 9.02251L7.38271 8.61011C7.43985 8.59836 7.49176 8.57101 7.53203 8.53011L12.1474 3.91478L10.0853 1.85278L5.46929 6.46811Z" fill="#92929D"/>
<path d="M13.573 0.426579C13.0043 -0.142193 12.0791 -0.142193 11.5109 0.426579L10.7036 1.23386L12.7657 3.29596L13.573 2.48857C13.8484 2.21386 14 1.84749 14 1.45784C14 1.0682 13.8484 0.701832 13.573 0.426579Z" fill="#92929D"/>
</svg>
